<?xml version="1.0" standalone="no"?><!DOCTYPE svg PUBLIC "-//W3C//DTD SVG 1.1//EN" "http://www.w3.org/Graphics/SVG/1.1/DTD/svg11.dtd"><svg t="1587711602269" class="icon" viewBox="0 0 1024 1024" version="1.1" xmlns="http://www.w3.org/2000/svg" p-id="3926" xmlns:xlink="http://www.w3.org/1999/xlink" width="128" height="128"><defs><style type="text/css"></style></defs><path d="M1004.45327 190.343172c0-93.553522-76.098043-169.553501-169.553501-169.5535H169.826408c-93.455458 0-169.553501 76.098043-169.553501 169.5535v664.975297c0 45.599987 17.749672 88.25804 50.110954 120.227063 31.576765 31.282572 73.352237 48.443857 117.579322 48.443857h666.838522c35.205151 0.392258 68.841271-10.100642 97.181908-29.909669 13.630964-1.470967 24.712251-11.277416 27.948379-24.418057 28.732895-31.184507 44.521278-71.587077 44.521278-114.441258v-664.877233zM686.13594 506.20889c-7.845159-98.064489-86.198685-176.418015-184.263174-184.263174v-24.712251c111.597388 7.943224 201.032202 97.378037 208.975425 208.975425h-24.712251zM485.79019 691.25658c-93.0632 0-168.867049-75.705785-168.867049-168.86705S392.628926 353.522481 485.79019 353.522481s168.867049 75.705785 168.867049 168.867049S578.85339 691.25658 485.79019 691.25658z m-16.180641-369.310864c-98.064489 7.845159-176.418015 86.198685-184.263174 184.263174h-24.712251c7.943224-111.597388 97.378037-201.032202 208.975425-208.975425v24.712251zM285.346375 538.472107c7.845159 98.064489 86.198685 176.418015 184.263174 184.263174v24.712251c-111.597388-7.943224-201.032202-97.378037-208.975425-208.975425h24.712251zM501.872766 722.735281c98.064489-7.845159 176.418015-86.198685 184.263174-184.263174h24.712251c-7.943224 111.597388-97.378037 201.032202-208.975425 208.975425V722.735281z m170.534146-16.867092c7.845159-7.845159 20.593543-7.845159 28.438701 0l216.330262 216.330261c2.353548 2.353548 3.92258 5.099353 4.80516 8.041288-12.650319 2.647741-22.554832 12.552255-25.202574 25.202574-2.941935-0.980645-5.785805-2.451612-8.041288-4.80516L672.406912 734.30689c-7.845159-7.845159-7.845159-20.593543 0-28.438701zM972.190053 855.318469c0 24.516122-6.472256 47.953535-18.436124 68.547078-2.255483-9.218062-6.962579-17.651608-13.827093-24.614187L723.596575 683.019163c-7.158708-7.158708-16.082576-11.963868-25.692896-14.121287 28.83096-41.677408 45.796116-92.180619 45.796116-146.60641 0-142.291573-115.716096-258.007669-258.00767-258.007669s-258.007669 115.716096-258.007669 258.007669 115.716096 258.007669 258.007669 258.007669c55.896758 0 107.576744-17.945801 149.940603-48.247728 2.255483 9.316126 6.962579 17.945801 13.925158 24.90838l216.330262 216.330262c4.510966 4.510966 9.708384 8.041288 15.396124 10.590965-14.709673 5.099353-30.203862 7.845159-46.090309 7.64903H168.159312c-35.793538 0-69.527722-13.827093-95.122554-39.127731-26.085154-25.889025-40.500634-60.407725-40.500634-97.279973V190.343172c0-75.705785 61.584499-137.290284 137.290284-137.290284H834.899769c75.705785 0 137.290284 61.584499 137.290284 137.290284v664.975297z" fill="#025AAB" p-id="3927"></path></svg>